<!DOCTYPE svg PUBLIC "-//W3C//DTD SVG 20010904//EN" "http://www.w3.org/TR/2001/REC-SVG-20010904/DTD/svg10.dtd">
<svg version="1.0" xmlns="http://www.w3.org/2000/svg" width="1600px" height="1600px" viewBox="0 0 16000 16000" preserveAspectRatio="xMidYMid meet">
<g id="layer1" fill="#990000" stroke="none">
 <path d="M4064 14876 c-3 -8 2 -27 11 -43 64 -113 81 -142 92 -155 6 -7 17 -25 22 -38 6 -14 22 -43 36 -65 14 -22 32 -53 40 -70 9 -16 29 -50 45 -75 16 -25 34 -54 40 -65 5 -11 21 -38 34 -60 28 -44 93 -155 133 -225 26 -47 63 -105 95 -152 10 -15 18 -34 18 -42 0 -8 5 -18 10 -21 6 -4 19 -23 31 -43 11 -20 31 -55 44 -77 13 -22 29 -49 34 -60 6 -11 21 -36 33 -57 48 -77 88 -148 88 -157 0 -5 7 -15 16 -22 9 -7 20 -22 25 -34 5 -11 20 -38 34 -60 13 -22 35 -57 47 -79 13 -21 28 -46 33 -55 6 -9 23 -38 38 -66 15 -27 39 -68 52 -90 14 -22 30 -49 35 -60 5 -11 21 -38 35 -60 13 -22 34 -56 45 -75 25 -42 56 -95 81 -135 11 -16 26 -43 34 -60 9 -16 29 -50 45 -75 15 -25 41 -67 55 -95 15 -27 33 -57 40 -65 8 -8 18 -26 24 -40 6 -14 22 -43 35 -65 14 -22 44 -71 66 -110 23 -38 50 -85 60 -102 11 -18 29 -48 40 -65 10 -18 37 -64 60 -103 22 -38 52 -88 66 -110 13 -22 29 -49 34 -60 6 -11 24 -40 40 -65 16 -25 32 -52 36 -60 3 -8 10 -22 15 -30 5 -8 18 -31 29 -50 11 -19 32 -53 45 -75 14 -22 30 -49 35 -60 5 -11 21 -38 35 -60 13 -22 34 -56 45 -75 11 -19 32 -53 45 -75 14 -22 30 -49 35 -60 5 -11 21 -38 35 -60 13 -22 35 -57 47 -79 13 -21 28 -46 33 -55 6 -9 23 -38 38 -66 15 -27 36 -63 46 -80 27 -45 63 -107 78 -138 l14 -27 1491 2 1490 3 29 50 c16 28 32 57 36 65 3 8 12 22 18 30 7 8 27 42 45 75 17 33 45 80 61 105 16 25 33 54 39 65 5 11 21 38 35 60 14 22 32 54 40 70 9 17 29 50 45 75 16 25 34 54 40 65 5 11 21 38 35 60 14 22 32 54 40 70 9 17 29 50 45 75 16 25 43 72 60 105 18 33 38 67 45 75 7 8 25 38 40 65 14 28 40 70 55 95 16 25 36 59 45 75 8 17 26 48 40 70 14 22 30 49 35 60 6 11 24 40 40 65 16 25 36 59 45 75 8 17 26 48 40 70 14 22 28 47 32 55 3 8 12 22 18 30 7 8 27 42 45 75 17 33 44 80 60 105 16 25 35 56 43 70 24 44 59 104 78 135 10 17 28 46 39 65 11 19 32 53 45 75 14 22 30 49 35 60 5 11 21 38 35 60 13 22 34 56 45 75 11 19 24 42 29 50 5 8 12 22 15 30 4 8 20 35 36 60 16 25 34 54 40 65 5 11 21 38 35 60 14 22 32 54 40 70 9 17 29 50 45 75 16 25 34 54 40 65 5 11 21 38 34 60 35 56 105 176 146 250 19 34 40 69 46 76 7 8 24 37 39 64 14 28 40 70 55 95 16 25 36 59 45 75 8 17 24 45 35 63 33 52 58 95 80 132 11 19 29 49 39 65 18 30 54 92 75 130 6 11 19 31 28 45 9 14 27 45 40 70 25 48 49 88 80 133 11 16 17 35 14 43 -8 21 -7894 21 -7902 0z"/>
 <path d="M6725 10024 c-9 -14 -31 -51 -48 -83 -17 -31 -44 -78 -59 -106 -15 -27 -37 -68 -48 -90 -11 -22 -31 -58 -44 -80 -14 -22 -33 -58 -45 -80 -11 -22 -36 -69 -56 -105 -128 -227 -247 -444 -256 -463 -6 -12 -21 -40 -34 -62 -14 -22 -34 -58 -45 -80 -11 -22 -30 -58 -43 -80 -13 -22 -39 -69 -58 -105 -20 -36 -50 -90 -66 -120 -17 -30 -76 -138 -132 -240 -56 -102 -106 -192 -111 -200 -5 -8 -22 -38 -36 -67 l-27 -52 57 -103 c31 -57 61 -110 66 -118 6 -8 19 -33 30 -55 11 -22 33 -62 48 -90 15 -27 47 -86 71 -130 24 -44 61 -109 81 -145 20 -36 55 -99 78 -140 22 -41 55 -102 73 -135 18 -33 41 -76 51 -95 10 -19 23 -42 28 -50 14 -22 160 -289 171 -314 6 -12 21 -39 34 -61 14 -22 34 -58 45 -80 11 -22 24 -47 29 -55 9 -14 152 -274 207 -377 13 -23 31 -54 40 -68 l16 -25 1265 2 1265 3 40 70 c53 94 133 241 158 290 11 22 31 58 44 80 14 22 33 58 45 80 11 22 36 69 56 105 20 36 86 155 146 265 61 110 115 207 120 215 5 8 18 33 29 55 11 22 31 58 44 80 14 22 33 58 45 80 11 22 36 69 56 105 20 36 86 155 146 265 61 110 115 207 120 215 5 8 18 34 28 56 11 23 24 45 30 48 16 10 13 48 -5 75 -9 13 -30 49 -47 80 -16 31 -41 76 -55 101 -14 25 -34 61 -44 80 -10 19 -30 53 -43 75 -13 22 -32 58 -44 80 -11 22 -36 69 -57 105 -20 36 -49 88 -64 115 -15 28 -152 274 -304 549 -153 274 -282 508 -287 520 -6 11 -21 39 -34 61 -13 22 -33 56 -43 75 -10 19 -33 60 -50 90 l-31 55 -1264 3 -1265 2 -17 -26z"/>
 <path d="M0 7809 c0 -37 6 -73 16 -92 9 -18 22 -41 27 -52 23 -43 39 -72 67 -115 16 -25 36 -58 45 -75 8 -16 26 -48 40 -70 14 -22 30 -49 35 -60 6 -11 23 -40 39 -65 16 -25 42 -67 56 -95 15 -27 33 -57 40 -65 8 -8 18 -26 24 -40 6 -14 22 -43 36 -65 13 -22 34 -56 45 -75 11 -19 32 -53 45 -75 13 -22 29 -49 34 -60 6 -11 22 -38 36 -60 13 -22 34 -56 45 -75 11 -19 32 -53 45 -75 14 -22 30 -49 36 -60 5 -11 21 -38 34 -60 13 -22 34 -56 45 -75 11 -19 32 -53 45 -75 14 -22 30 -49 35 -60 6 -11 23 -40 39 -65 16 -25 44 -72 61 -105 18 -33 38 -67 45 -75 6 -8 15 -22 18 -30 4 -8 18 -33 32 -55 14 -22 32 -53 40 -70 9 -16 29 -50 45 -75 16 -25 34 -54 40 -65 5 -11 21 -38 35 -60 13 -22 34 -56 45 -75 11 -19 32 -53 45 -75 14 -22 30 -49 35 -60 5 -11 21 -38 35 -60 26 -43 50 -82 91 -155 27 -47 64 -106 96 -152 10 -15 18 -34 18 -42 0 -8 5 -18 10 -21 6 -4 19 -23 30 -43 11 -20 32 -55 45 -77 14 -22 30 -49 35 -60 5 -11 21 -38 35 -60 13 -22 34 -56 45 -75 11 -19 32 -53 45 -75 14 -22 30 -49 35 -60 6 -11 24 -40 40 -65 16 -25 36 -58 45 -75 8 -16 26 -48 40 -70 14 -22 30 -49 35 -60 6 -11 24 -40 40 -65 16 -25 34 -54 40 -65 5 -11 21 -38 35 -60 14 -22 32 -53 40 -70 8 -16 25 -47 37 -67 35 -57 121 -201 134 -223 6 -11 20 -36 32 -55 12 -19 31 -51 42 -70 11 -19 29 -50 40 -67 53 -87 120 -202 167 -283 14 -25 35 -61 47 -80 45 -70 61 -95 72 -115 6 -11 21 -36 32 -55 12 -19 27 -46 34 -60 7 -14 24 -43 38 -65 15 -22 46 -74 69 -115 23 -41 53 -93 67 -115 13 -22 28 -50 34 -62 5 -11 14 -24 20 -28 5 -3 17 -21 25 -38 8 -18 26 -50 40 -72 14 -22 28 -47 32 -55 6 -12 95 -161 133 -220 12 -20 90 -153 113 -193 10 -18 26 -45 37 -62 11 -16 27 -43 35 -60 8 -16 26 -48 40 -70 14 -22 31 -51 38 -65 10 -21 42 -74 94 -156 7 -10 22 -35 33 -54 11 -19 25 -42 30 -50 5 -8 24 -41 42 -73 65 -116 76 -132 92 -135 20 -4 45 14 57 43 5 11 23 40 39 65 16 25 34 54 40 65 5 11 21 38 35 60 13 22 34 56 45 75 11 19 32 53 45 75 14 22 30 49 35 60 6 11 24 40 40 65 16 25 34 54 40 65 5 11 21 38 35 60 13 22 34 56 45 75 11 19 32 53 45 75 14 22 30 49 35 60 6 11 24 40 40 65 16 25 34 54 40 65 5 11 21 38 35 60 13 22 34 56 45 75 11 19 32 53 45 75 14 22 30 49 36 60 5 11 21 38 34 60 13 22 34 56 45 75 11 19 32 53 45 75 14 22 30 49 35 60 6 11 24 40 40 65 16 25 34 54 40 65 5 11 21 38 35 60 13 22 34 56 45 75 11 19 29 49 39 65 43 71 62 102 81 137 11 20 24 39 30 43 5 3 10 13 10 21 0 8 8 27 18 42 36 53 70 107 89 142 18 34 34 60 79 130 12 19 31 51 41 70 20 38 46 81 73 121 10 14 30 48 45 75 14 27 40 69 56 94 16 25 33 54 39 65 5 11 21 38 35 60 13 22 34 56 45 75 11 19 32 53 45 75 14 22 30 49 35 60 6 11 24 40 40 65 16 25 34 54 40 65 5 11 21 38 35 60 13 22 34 56 45 75 11 19 32 53 45 75 14 22 30 49 35 60 5 11 21 38 35 60 13 22 34 56 45 75 11 19 32 53 45 75 14 22 30 49 35 60 6 11 24 40 40 65 16 25 34 54 40 65 5 11 21 38 35 60 13 22 34 56 45 75 11 19 32 53 45 75 14 22 28 47 32 55 3 8 15 26 25 39 31 41 22 70 -68 216 -13 22 -29 49 -34 60 -5 11 -21 38 -35 60 -14 22 -30 51 -37 65 -6 14 -17 32 -24 40 -6 8 -27 43 -45 78 -19 34 -43 78 -54 96 -11 19 -40 68 -65 111 -25 42 -50 84 -55 93 -6 10 -23 40 -38 67 -15 28 -38 68 -51 90 -13 22 -31 51 -38 65 -39 68 -62 108 -79 135 -10 17 -27 46 -37 65 -22 42 -58 104 -83 145 -11 17 -26 44 -34 60 -9 17 -29 50 -45 75 -16 25 -32 52 -36 60 -3 8 -9 22 -14 30 -5 8 -29 48 -52 89 -24 40 -52 88 -63 107 -11 18 -35 62 -54 96 -18 35 -38 70 -45 78 -6 8 -17 26 -24 39 -26 45 -52 91 -74 129 -11 20 -26 46 -32 57 -6 11 -19 31 -27 45 -9 14 -31 52 -49 85 -17 33 -39 68 -47 78 -15 16 -148 17 -2515 17 l-2498 0 0 -61z"/>
 <path d="M11003 7858 c-9 -15 -28 -48 -55 -98 -10 -19 -27 -48 -37 -65 -17 -27 -40 -67 -79 -135 -7 -14 -25 -43 -38 -65 -13 -22 -36 -62 -51 -90 -15 -27 -32 -57 -38 -67 -5 -9 -30 -51 -55 -93 -25 -43 -54 -92 -65 -111 -11 -18 -35 -62 -54 -96 -18 -35 -38 -70 -45 -78 -6 -8 -17 -26 -24 -39 -8 -13 -22 -39 -33 -57 -10 -19 -28 -49 -38 -68 -11 -18 -25 -44 -33 -57 -7 -13 -18 -31 -24 -39 -7 -8 -27 -43 -45 -78 -19 -34 -43 -78 -54 -96 -11 -19 -39 -67 -63 -107 -23 -41 -47 -81 -52 -89 -5 -8 -11 -22 -14 -30 -4 -8 -20 -35 -36 -60 -16 -25 -36 -58 -45 -75 -8 -16 -23 -43 -34 -60 -25 -41 -61 -103 -83 -145 -10 -19 -30 -53 -43 -75 -14 -22 -30 -49 -35 -60 -5 -11 -21 -38 -35 -60 -14 -22 -30 -51 -37 -65 -6 -14 -17 -32 -23 -40 -25 -32 -85 -153 -85 -171 0 -19 18 -58 60 -126 11 -18 29 -48 40 -65 11 -18 29 -49 40 -68 11 -19 32 -53 45 -75 14 -22 30 -49 35 -60 6 -11 24 -40 40 -65 16 -25 34 -54 40 -65 5 -11 21 -38 35 -60 13 -22 34 -56 45 -75 11 -19 32 -53 45 -75 13 -22 29 -49 34 -60 6 -11 22 -38 36 -60 13 -22 34 -56 45 -75 11 -19 32 -53 45 -75 14 -22 30 -49 35 -60 6 -11 24 -40 40 -65 16 -25 34 -54 40 -65 5 -11 21 -38 35 -60 13 -22 34 -56 45 -75 11 -19 32 -53 45 -75 14 -22 30 -49 35 -60 6 -11 23 -40 39 -65 16 -25 42 -67 56 -94 15 -27 35 -61 45 -75 27 -40 53 -83 73 -121 10 -19 29 -51 41 -70 47 -73 61 -96 84 -140 14 -25 30 -52 37 -60 7 -8 27 -42 45 -75 17 -33 45 -80 61 -105 16 -25 33 -54 39 -65 5 -11 21 -38 35 -60 13 -22 34 -56 45 -75 11 -19 32 -53 45 -75 14 -22 30 -49 35 -60 6 -11 24 -40 40 -65 16 -25 34 -54 40 -65 5 -11 21 -38 34 -60 14 -22 43 -71 66 -110 23 -38 52 -88 66 -110 13 -22 29 -49 34 -60 6 -11 24 -40 40 -65 16 -25 34 -54 40 -65 5 -11 21 -38 35 -60 13 -22 34 -56 45 -75 11 -19 32 -53 45 -75 14 -22 30 -49 35 -60 6 -11 24 -40 40 -65 16 -25 34 -54 40 -65 5 -11 21 -38 35 -60 13 -22 34 -56 45 -75 11 -19 32 -53 45 -75 14 -22 30 -49 35 -60 6 -11 24 -40 40 -65 16 -25 34 -54 40 -65 5 -11 21 -38 35 -60 13 -22 32 -53 41 -70 43 -79 84 -95 109 -42 8 17 24 46 35 62 11 17 27 44 35 60 8 17 26 48 40 70 13 22 34 56 45 75 11 19 29 49 40 65 11 17 28 46 38 65 9 19 31 55 47 80 17 25 44 70 59 100 16 30 34 62 41 70 7 8 15 22 18 30 4 8 18 33 32 55 14 22 30 51 37 65 7 14 22 39 34 55 11 17 24 37 28 45 3 8 15 29 26 45 11 17 27 44 35 62 8 17 19 34 25 38 6 4 17 21 25 38 8 18 26 50 40 72 14 22 28 47 32 55 4 8 23 40 42 70 20 30 41 64 47 75 6 11 21 36 32 55 12 19 29 49 37 65 9 17 29 50 45 75 16 25 33 52 37 60 4 8 20 38 36 65 17 28 39 66 50 85 11 19 28 49 38 65 10 17 28 46 39 65 11 19 32 53 45 75 14 22 30 49 36 60 5 11 21 38 34 60 13 22 34 56 45 75 11 19 32 53 45 75 14 22 30 49 35 60 6 11 24 40 40 65 16 25 34 54 40 65 5 11 21 38 35 60 14 22 32 54 40 70 9 17 29 50 45 75 16 25 43 72 60 105 18 33 38 67 45 75 7 8 25 38 40 65 14 28 39 70 55 95 16 25 35 56 43 70 24 44 59 104 78 135 10 17 28 46 39 65 11 19 29 50 40 68 11 17 29 47 40 65 11 17 29 48 40 67 11 19 29 49 39 65 16 27 34 57 73 126 7 13 18 31 24 39 7 8 26 42 44 75 17 33 45 80 61 105 16 25 33 54 39 65 5 11 21 38 35 60 13 22 34 56 45 75 11 19 32 53 45 75 14 22 30 49 35 60 5 11 21 38 35 60 13 22 34 56 45 75 11 19 29 50 40 68 37 61 59 97 100 167 22 39 52 88 66 110 13 22 27 47 31 55 3 8 12 22 18 30 7 8 27 42 45 75 17 33 45 80 61 105 16 25 33 54 39 65 5 11 21 38 35 60 13 22 34 56 45 75 11 19 32 53 45 75 13 22 29 49 34 60 6 11 22 38 36 60 13 22 34 56 45 75 11 19 29 49 39 65 19 31 54 91 78 135 8 14 27 45 43 70 16 25 43 72 60 105 18 33 38 67 45 75 7 8 25 38 40 65 14 28 39 70 55 95 16 25 35 56 43 70 24 44 59 104 78 135 99 162 109 186 109 271 l0 74 -2494 0 c-1985 0 -2496 -3 -2503 -12z"/>
 </g>
<g id="layer2" fill="#ffffff" stroke="none">
 <path d="M4085 14890 c-3 -6 0 -12 7 -15 27 -10 3923 0 3923 10 0 14 -3921 19 -3930 5z"/>
 <path d="M8175 14890 c-3 -6 0 -12 7 -15 27 -10 3758 0 3758 10 0 14 -3756 19 -3765 5z"/>
 <path d="M3808 14708 c-7 -13 -18 -32 -25 -43 -7 -11 -17 -29 -23 -40 -16 -30 -88 -153 -215 -366 -5 -9 -20 -34 -33 -55 -12 -22 -34 -57 -47 -79 -13 -22 -29 -49 -35 -60 -6 -11 -21 -36 -33 -56 -12 -20 -41 -70 -65 -110 -23 -41 -47 -81 -52 -89 -38 -59 -127 -208 -133 -220 -4 -8 -18 -33 -32 -55 -13 -22 -33 -56 -43 -75 -38 -71 -46 -84 -108 -180 -12 -19 -33 -56 -47 -82 -14 -25 -38 -66 -54 -90 -15 -23 -33 -54 -40 -68 -7 -14 -24 -43 -38 -65 -14 -22 -30 -49 -35 -60 -6 -11 -24 -40 -40 -65 -16 -25 -34 -54 -40 -65 -5 -11 -21 -38 -34 -60 -14 -22 -43 -71 -66 -110 -23 -38 -52 -88 -66 -110 -13 -22 -27 -47 -31 -55 -3 -8 -11 -22 -18 -30 -7 -8 -25 -40 -41 -70 -28 -53 -43 -79 -83 -138 -10 -16 -31 -51 -46 -78 -14 -27 -40 -69 -55 -94 -16 -25 -36 -58 -45 -75 -8 -16 -25 -46 -36 -65 -51 -82 -60 -97 -79 -130 -11 -19 -32 -53 -45 -75 -14 -22 -30 -49 -36 -60 -5 -11 -21 -38 -34 -60 -13 -22 -34 -56 -45 -75 -11 -19 -32 -53 -45 -75 -14 -22 -30 -51 -36 -65 -6 -14 -16 -32 -24 -40 -7 -8 -25 -37 -40 -65 -14 -27 -40 -70 -56 -95 -16 -25 -33 -54 -39 -65 -5 -11 -21 -38 -35 -60 -14 -22 -32 -53 -40 -70 -9 -16 -29 -50 -45 -75 -16 -25 -34 -54 -40 -65 -5 -11 -21 -38 -35 -60 -13 -22 -34 -56 -45 -75 -11 -19 -32 -53 -45 -75 -14 -22 -30 -49 -35 -60 -5 -11 -21 -38 -35 -60 -13 -22 -34 -57 -45 -77 -11 -20 -24 -39 -30 -43 -5 -3 -10 -13 -10 -21 0 -8 -8 -27 -18 -42 -32 -46 -69 -105 -96 -152 -41 -73 -65 -112 -91 -155 -14 -22 -30 -49 -35 -60 -5 -11 -21 -38 -35 -60 -13 -22 -34 -56 -45 -75 -11 -19 -32 -53 -45 -75 -14 -22 -30 -49 -35 -60 -6 -11 -24 -40 -40 -65 -16 -25 -36 -58 -45 -75 -8 -16 -26 -48 -40 -70 -14 -22 -28 -47 -32 -55 -3 -8 -12 -22 -18 -30 -7 -8 -27 -42 -45 -75 -17 -33 -45 -80 -61 -105 -16 -25 -33 -54 -39 -65 -5 -11 -21 -38 -35 -60 -13 -22 -34 -56 -45 -75 -11 -19 -32 -53 -45 -75 -13 -22 -29 -49 -34 -60 -6 -11 -22 -38 -36 -60 -13 -22 -34 -56 -45 -75 -11 -19 -32 -53 -45 -75 -14 -22 -30 -49 -36 -60 -5 -11 -21 -38 -34 -60 -13 -22 -33 -56 -45 -75 -24 -42 -39 -66 -62 -102 -10 -14 -18 -34 -18 -43 0 -9 -7 -23 -15 -31 -10 -11 -15 -36 -15 -80 l0 -64 2498 0 c2367 0 2500 1 2514 18 9 9 25 34 37 55 12 20 31 54 43 75 11 20 26 46 32 57 6 11 19 31 27 45 9 14 30 50 46 80 17 30 40 71 51 90 29 47 101 171 111 190 20 37 94 165 130 225 29 48 63 107 83 145 10 19 30 53 43 75 14 22 30 49 35 60 5 11 21 38 35 60 14 22 30 51 37 65 6 14 17 32 24 40 6 8 27 43 45 78 19 34 44 79 56 100 12 20 32 53 43 72 11 19 31 52 43 72 12 21 37 66 56 100 18 35 39 70 45 78 7 8 18 26 24 40 7 14 20 39 31 55 29 48 63 108 79 140 8 17 20 37 27 45 7 8 26 40 42 70 17 30 39 69 49 87 93 154 98 172 66 214 -10 13 -22 31 -25 39 -4 8 -18 33 -32 55 -13 22 -34 56 -45 75 -11 19 -32 53 -45 75 -14 22 -30 49 -35 60 -6 11 -24 40 -40 65 -16 25 -34 54 -40 65 -5 11 -21 38 -35 60 -13 22 -34 56 -45 75 -11 19 -32 53 -45 75 -14 22 -30 49 -35 60 -5 11 -21 38 -35 60 -13 22 -34 56 -45 75 -11 19 -32 53 -45 75 -14 22 -30 49 -35 60 -6 11 -24 40 -40 65 -16 25 -34 54 -40 65 -5 11 -21 38 -35 60 -13 22 -34 56 -45 75 -11 19 -32 53 -45 75 -14 22 -30 49 -35 60 -6 11 -24 40 -40 65 -16 25 -34 54 -40 65 -5 11 -21 38 -35 60 -13 22 -34 56 -45 75 -11 19 -32 53 -45 75 -14 22 -30 49 -35 60 -6 11 -24 40 -40 65 -16 25 -34 54 -40 65 -5 11 -21 38 -35 60 -13 22 -34 56 -45 75 -11 19 -32 53 -45 75 -13 22 -29 49 -34 60 -6 11 -22 38 -36 60 -13 22 -34 56 -45 75 -11 19 -32 53 -45 75 -14 22 -30 49 -35 60 -6 11 -24 40 -40 65 -16 25 -34 54 -40 65 -5 11 -21 38 -35 60 -13 22 -34 56 -45 75 -11 19 -32 53 -45 75 -14 22 -30 49 -35 60 -6 11 -23 40 -39 65 -16 25 -42 67 -56 94 -15 27 -35 61 -45 75 -27 40 -53 83 -73 121 -10 19 -29 51 -41 70 -47 73 -61 96 -84 140 -14 25 -30 52 -37 60 -7 8 -27 42 -45 75 -17 33 -45 80 -61 105 -16 25 -33 54 -39 65 -5 11 -21 38 -35 60 -13 22 -34 56 -45 75 -11 19 -32 53 -45 75 -14 22 -30 49 -35 60 -6 11 -24 40 -40 65 -16 25 -33 52 -36 60 -23 51 -65 65 -86 28z"/>
 <path d="M12143 14708 c-11 -13 -28 -36 -37 -53 -9 -16 -28 -48 -41 -70 -14 -22 -30 -49 -35 -60 -6 -11 -24 -40 -40 -65 -16 -25 -34 -54 -40 -65 -5 -11 -21 -38 -35 -60 -13 -22 -34 -56 -45 -75 -11 -19 -32 -53 -45 -75 -14 -22 -30 -51 -36 -65 -6 -14 -16 -32 -23 -40 -8 -8 -24 -35 -38 -60 -23 -44 -37 -67 -84 -140 -12 -19 -31 -51 -41 -70 -18 -34 -34 -60 -79 -130 -12 -19 -31 -51 -41 -70 -20 -38 -46 -81 -73 -121 -10 -14 -30 -48 -45 -75 -14 -27 -40 -69 -56 -94 -16 -25 -33 -54 -39 -65 -5 -11 -21 -38 -35 -60 -13 -22 -34 -56 -45 -75 -11 -19 -32 -53 -45 -75 -14 -22 -30 -49 -35 -60 -6 -11 -24 -40 -40 -65 -16 -25 -34 -54 -40 -65 -5 -11 -21 -38 -34 -60 -14 -22 -43 -71 -66 -110 -23 -38 -52 -88 -66 -110 -13 -22 -29 -49 -34 -60 -6 -11 -24 -40 -40 -65 -16 -25 -34 -54 -40 -65 -5 -11 -21 -38 -35 -60 -13 -22 -34 -56 -45 -75 -11 -19 -32 -53 -45 -75 -14 -22 -30 -49 -35 -60 -6 -11 -24 -40 -40 -65 -16 -25 -34 -54 -40 -65 -5 -11 -21 -38 -35 -60 -13 -22 -34 -56 -45 -75 -11 -19 -32 -53 -45 -75 -14 -22 -30 -49 -35 -60 -6 -11 -24 -40 -40 -65 -16 -25 -34 -54 -40 -65 -5 -11 -21 -38 -35 -60 -13 -22 -34 -56 -45 -75 -11 -19 -32 -53 -45 -75 -14 -22 -30 -49 -36 -60 -5 -11 -21 -38 -34 -60 -13 -22 -34 -56 -45 -75 -11 -19 -32 -53 -45 -75 -14 -22 -30 -49 -35 -60 -6 -11 -24 -40 -40 -65 -16 -25 -34 -54 -40 -65 -5 -11 -21 -38 -35 -60 -13 -22 -34 -56 -45 -75 -11 -19 -29 -48 -39 -65 -85 -139 -101 -171 -101 -197 1 -27 10 -43 103 -200 12 -21 37 -66 56 -100 18 -35 39 -70 45 -78 7 -8 18 -26 24 -40 7 -14 23 -43 37 -65 14 -22 30 -49 35 -60 5 -11 21 -38 35 -60 13 -22 33 -56 43 -75 20 -38 54 -97 83 -145 36 -60 110 -188 130 -225 10 -19 82 -143 111 -190 11 -19 34 -60 51 -90 16 -30 37 -66 46 -80 8 -14 21 -34 27 -45 22 -40 57 -101 75 -130 11 -16 24 -41 31 -55 6 -14 17 -32 24 -40 6 -8 27 -43 45 -78 19 -34 44 -79 56 -100 12 -20 32 -53 43 -72 11 -19 31 -52 43 -72 12 -21 37 -66 56 -100 18 -35 39 -70 45 -78 7 -8 18 -26 24 -40 7 -14 21 -40 32 -57 11 -18 28 -48 38 -65 l19 -33 2496 -3 2497 -2 0 70 c0 63 -12 110 -41 160 -38 65 -53 90 -74 125 -14 22 -30 49 -35 60 -5 11 -21 38 -35 60 -13 22 -34 56 -45 75 -11 19 -30 51 -42 70 -11 19 -29 49 -39 65 -10 17 -36 62 -59 100 -22 39 -52 88 -66 110 -13 22 -29 49 -34 60 -6 11 -23 40 -39 65 -16 25 -42 68 -56 95 -15 28 -33 57 -40 65 -8 8 -18 26 -24 40 -6 14 -22 43 -35 65 -14 22 -44 72 -66 110 -41 70 -63 106 -100 168 -11 17 -29 48 -40 67 -11 19 -32 53 -45 75 -14 22 -30 49 -35 60 -5 11 -21 38 -35 60 -26 43 -50 82 -91 155 -15 25 -36 61 -48 80 -50 78 -62 97 -84 140 -13 25 -31 56 -40 70 -9 14 -22 34 -28 45 -21 38 -57 100 -75 130 -10 17 -28 46 -39 65 -11 19 -29 50 -40 68 -11 17 -29 47 -40 65 -11 17 -29 48 -40 67 -11 19 -29 49 -39 65 -19 31 -54 91 -78 135 -8 14 -27 45 -43 70 -16 25 -41 68 -55 95 -15 28 -33 57 -40 65 -7 8 -27 42 -45 75 -17 33 -44 80 -60 105 -16 25 -35 56 -43 70 -24 44 -59 104 -78 135 -10 17 -28 46 -39 65 -11 19 -29 50 -40 68 -37 61 -59 97 -100 167 -22 39 -52 88 -66 110 -13 22 -29 49 -34 60 -6 11 -23 40 -39 65 -16 25 -44 72 -61 105 -18 33 -38 67 -45 75 -6 8 -15 22 -18 30 -4 8 -18 33 -32 55 -13 22 -34 56 -45 75 -11 19 -32 53 -45 75 -13 22 -29 49 -34 60 -6 11 -22 38 -36 60 -13 22 -34 56 -45 75 -11 19 -30 51 -42 70 -12 19 -26 44 -32 55 -14 25 -103 173 -134 223 -12 20 -27 46 -32 57 -6 11 -23 40 -39 65 -16 25 -41 65 -54 90 -14 25 -52 90 -86 145 -34 54 -61 104 -61 111 0 6 -7 17 -16 24 -8 8 -22 27 -30 44 -7 17 -23 45 -33 61 -11 17 -38 62 -61 100 -41 70 -67 114 -101 170 -26 42 -95 162 -126 215 -14 25 -35 61 -47 80 -45 70 -61 95 -72 115 -6 11 -21 38 -34 60 -13 22 -32 56 -42 75 -10 19 -28 49 -38 65 -11 17 -27 45 -35 63 -18 38 -43 41 -72 10z"/>
 <path d="M5154 12829 c-10 -17 13 -36 27 -22 12 12 4 33 -11 33 -5 0 -12 -5 -16 -11z"/>
 <path d="M6465 10368 c-8 -18 -32 -64 -53 -103 -83 -151 -117 -212 -139 -250 -13 -22 -32 -58 -43 -80 -11 -22 -31 -58 -45 -80 -13 -22 -27 -47 -30 -55 -4 -8 -11 -24 -17 -35 -6 -11 -25 -45 -41 -75 -16 -30 -38 -68 -47 -85 -19 -31 -70 -125 -102 -185 -10 -19 -22 -42 -27 -50 -4 -8 -14 -26 -21 -40 -35 -66 -74 -138 -90 -165 -19 -31 -70 -125 -102 -185 -10 -19 -23 -43 -28 -52 -6 -10 -14 -26 -20 -35 -5 -10 -18 -34 -28 -53 -32 -60 -83 -154 -102 -185 -16 -27 -55 -99 -90 -165 -7 -14 -17 -32 -21 -40 -5 -8 -17 -31 -27 -50 -28 -52 -79 -145 -123 -223 -21 -38 -39 -72 -39 -75 0 -4 -9 -18 -20 -32 -26 -34 -26 -106 0 -140 11 -14 20 -28 20 -32 0 -3 18 -37 39 -75 44 -78 95 -171 123 -223 10 -19 23 -43 28 -53 6 -9 14 -25 20 -35 5 -9 18 -33 28 -52 33 -61 145 -264 174 -315 10 -16 32 -57 49 -90 17 -33 42 -78 55 -100 13 -22 33 -58 44 -80 11 -22 31 -58 45 -80 13 -22 27 -47 30 -55 4 -8 11 -24 17 -35 6 -11 25 -45 41 -75 16 -30 38 -68 47 -85 10 -16 31 -55 48 -85 16 -30 38 -71 50 -91 30 -54 40 -72 47 -89 3 -8 17 -33 30 -55 14 -22 34 -58 45 -80 11 -22 30 -58 43 -80 36 -63 168 -303 193 -350 8 -16 25 -48 38 -70 l22 -40 1499 -3 c1136 -1 1501 1 1512 10 8 6 22 28 32 47 10 20 27 52 38 72 29 50 41 72 48 89 3 8 17 33 30 55 14 22 34 58 45 80 11 22 31 58 44 80 14 22 32 54 40 70 9 17 19 37 24 45 5 8 15 26 21 39 7 13 22 40 34 60 11 20 29 52 39 71 10 19 29 53 41 75 13 22 39 69 59 105 19 36 50 92 68 125 18 33 50 89 70 125 34 60 77 137 110 200 7 14 17 32 22 40 5 8 15 29 24 45 8 17 26 48 40 70 13 22 33 58 44 80 11 22 31 58 45 80 13 22 27 47 30 55 4 8 11 22 16 30 5 8 16 29 24 45 9 17 28 53 45 80 16 28 36 64 44 80 16 29 58 107 126 230 18 33 50 90 71 127 22 36 39 76 39 88 0 12 -17 52 -39 88 -21 37 -52 93 -70 125 -17 31 -45 83 -62 115 -18 31 -49 86 -69 122 -20 36 -40 72 -43 80 -4 8 -20 38 -37 65 -16 28 -44 77 -61 110 -17 33 -42 78 -55 100 -13 22 -33 58 -44 80 -11 22 -31 58 -45 80 -13 22 -27 47 -30 55 -4 8 -11 22 -16 30 -5 8 -18 32 -29 53 -44 81 -62 114 -85 152 -13 22 -31 54 -39 70 -9 17 -19 37 -24 45 -5 8 -15 26 -22 40 -33 63 -76 140 -110 200 -35 61 -62 110 -133 240 -16 30 -38 69 -47 85 -10 17 -31 55 -48 85 -16 30 -40 73 -52 95 -30 50 -96 172 -113 205 -6 14 -20 37 -31 53 l-18 27 -1504 0 -1504 0 -15 -32z m2817 -398 c17 -30 40 -71 50 -90 10 -19 30 -53 43 -75 13 -22 28 -50 34 -61 5 -12 134 -246 287 -520 152 -275 289 -521 304 -549 15 -27 44 -79 64 -115 21 -36 46 -83 57 -105 12 -22 31 -58 44 -80 13 -22 33 -56 43 -75 10 -19 30 -55 44 -80 14 -25 39 -70 55 -101 17 -31 37 -67 46 -79 13 -19 14 -27 4 -43 -7 -11 -22 -36 -34 -56 -12 -20 -27 -46 -32 -58 -6 -12 -55 -102 -109 -200 -55 -98 -117 -209 -138 -248 -21 -38 -51 -92 -66 -120 -15 -27 -37 -68 -48 -90 -11 -22 -31 -58 -45 -80 -13 -22 -29 -50 -34 -62 -6 -12 -55 -102 -109 -200 -55 -98 -117 -209 -138 -248 -21 -38 -51 -92 -66 -120 -15 -27 -37 -68 -48 -90 -11 -22 -30 -57 -43 -78 -12 -21 -43 -77 -68 -125 -26 -48 -65 -118 -87 -157 l-40 -70 -1244 -3 -1245 -2 -27 40 c-14 22 -26 42 -26 44 0 3 -43 82 -95 176 -53 94 -100 181 -106 193 -5 12 -21 40 -34 62 -14 22 -34 58 -45 80 -11 22 -24 47 -29 55 -6 8 -46 83 -91 165 -44 83 -85 157 -90 165 -5 8 -18 31 -28 50 -10 19 -33 62 -51 95 -18 33 -51 94 -73 135 -23 41 -58 104 -78 140 -20 36 -57 101 -81 145 -24 44 -56 103 -71 130 -15 28 -37 68 -48 90 -11 22 -24 47 -30 55 -5 8 -32 57 -61 108 l-51 93 21 42 c12 23 26 49 31 57 5 8 55 98 111 200 56 102 115 210 132 240 16 30 46 84 66 120 19 36 45 83 58 105 13 22 32 58 43 80 11 22 31 58 45 80 13 22 29 50 34 62 6 12 55 102 109 200 55 98 117 210 138 248 21 39 51 93 66 120 15 28 37 68 48 90 11 22 31 58 44 80 14 22 34 58 45 80 28 54 71 132 99 178 l24 37 1245 -2 1244 -3 31 -55z"/>
 <path d="M6502 5300 c-12 -16 -27 -40 -32 -52 -6 -13 -24 -43 -40 -68 -16 -25 -32 -49 -34 -55 -2 -5 -7 -17 -10 -25 -4 -8 -20 -35 -36 -60 -16 -25 -34 -54 -40 -65 -5 -11 -21 -38 -34 -60 -14 -22 -44 -71 -66 -110 -23 -38 -50 -85 -60 -102 -11 -18 -29 -48 -40 -65 -10 -18 -37 -64 -60 -103 -22 -38 -52 -88 -66 -110 -13 -22 -29 -51 -35 -65 -6 -14 -16 -32 -24 -40 -7 -8 -25 -37 -40 -65 -14 -27 -39 -70 -55 -95 -16 -25 -35 -56 -43 -70 -24 -44 -59 -104 -78 -135 -10 -16 -28 -46 -39 -65 -11 -19 -32 -53 -45 -75 -14 -22 -30 -49 -35 -60 -5 -11 -21 -38 -35 -60 -13 -22 -37 -62 -52 -90 -15 -27 -32 -57 -38 -66 -5 -9 -20 -34 -33 -55 -12 -22 -34 -57 -47 -79 -14 -22 -30 -49 -35 -60 -5 -11 -21 -38 -35 -60 -13 -22 -34 -56 -45 -75 -19 -33 -28 -48 -79 -130 -11 -19 -28 -48 -36 -65 -9 -16 -29 -50 -45 -75 -16 -25 -43 -72 -60 -105 -18 -33 -38 -66 -44 -74 -6 -7 -24 -37 -41 -66 -45 -80 -113 -195 -141 -240 -13 -22 -29 -49 -34 -60 -6 -11 -24 -40 -40 -65 -16 -25 -36 -58 -45 -75 -8 -16 -26 -48 -40 -70 -14 -22 -30 -51 -36 -65 -6 -14 -16 -32 -24 -40 -7 -8 -25 -37 -40 -65 -14 -27 -39 -70 -55 -95 -16 -25 -35 -56 -43 -70 -24 -44 -59 -104 -78 -135 -10 -16 -28 -46 -39 -65 -11 -19 -29 -48 -39 -65 -16 -27 -34 -57 -73 -126 -7 -13 -18 -31 -24 -39 -7 -8 -26 -42 -44 -75 -17 -33 -44 -80 -60 -105 -54 -84 -64 -109 -50 -125 11 -13 481 -15 3945 -15 3564 0 3934 2 3946 16 10 12 10 20 1 32 -6 10 -23 40 -38 67 -14 28 -31 56 -38 64 -6 7 -27 42 -46 76 -41 74 -111 194 -146 250 -13 22 -29 49 -34 60 -6 11 -24 40 -40 65 -16 25 -36 59 -45 75 -8 17 -26 48 -40 70 -14 22 -30 49 -35 60 -6 11 -23 40 -39 65 -16 25 -44 72 -61 105 -18 33 -37 67 -44 75 -6 8 -17 26 -24 39 -39 69 -57 99 -73 126 -10 17 -28 46 -39 65 -11 19 -29 49 -39 65 -19 31 -54 91 -78 135 -8 14 -27 45 -43 70 -16 25 -43 72 -60 105 -18 33 -38 67 -45 75 -6 8 -15 22 -18 30 -4 8 -18 33 -32 55 -14 22 -32 54 -40 70 -9 17 -29 50 -45 75 -16 25 -34 54 -40 65 -5 11 -21 38 -34 60 -28 45 -96 160 -141 240 -16 29 -35 59 -41 66 -6 8 -26 41 -44 74 -17 33 -44 80 -60 105 -16 25 -36 59 -45 75 -8 17 -26 48 -40 70 -14 22 -30 49 -35 60 -6 11 -24 40 -40 65 -16 25 -36 59 -45 75 -8 17 -26 48 -40 70 -14 22 -30 49 -35 60 -6 11 -23 40 -39 65 -16 25 -44 72 -61 105 -18 33 -37 67 -44 75 -6 8 -17 26 -24 39 -39 69 -57 99 -73 126 -10 17 -28 46 -39 65 -11 19 -29 49 -39 65 -19 31 -54 91 -78 135 -8 14 -27 45 -43 70 -16 25 -41 68 -55 95 -15 28 -33 57 -40 65 -8 8 -18 26 -24 40 -6 14 -22 43 -36 65 -14 22 -31 51 -38 65 -6 14 -20 37 -31 53 l-18 27 -1482 0 -1482 0 -22 -30z"/>
 </g>

</svg>